# xmcd CD database file
#
# Track frame offsets:
#	150
#	47009
#	82320
#	112173
#	141159
#	168113
#	201383
#	241532
#
# Disc length: 3635 seconds
#
# Revision: 0
# Processed by: cddbd v1.5.2PL0 Copyright (c) Steve Scherf et al.
# Submitted via: CDex 1.51
#
DISCID=6c0e3108
DTITLE=Nils Janson - Excavation
DYEAR=2010
DGENRE=Jazz
TTITLE0=Öjaren
TTITLE1=Indie love
TTITLE2=Stealth
TTITLE3=Cave in
TTITLE4=Apollo
TTITLE5=Cool daddy groove
TTITLE6=Västermalm
TTITLE7=Tell me
EXTD=YEAR: 2010
EXTT0=
EXTT1=
EXTT2=
EXTT3=
EXTT4=
EXTT5=
EXTT6=
EXTT7=
PLAYORDER=
